<svg width="29" height="26" viewBox="0 0 29 26" fill="none" xmlns="http://www.w3.org/2000/svg">
<path d="M2.75 11.75H27.75C28.0815 11.75 28.3995 11.8817 28.6339 12.1161C28.8683 12.3505 29 12.6685 29 13C29 13.3315 28.8683 13.6495 28.6339 13.8839C28.3995 14.1183 28.0815 14.25 27.75 14.25H2.75C2.41848 14.25 2.10054 14.1183 1.86612 13.8839C1.6317 13.6495 1.5 13.3315 1.5 13C1.5 12.6685 1.6317 12.3505 1.86612 12.1161C2.10054 11.8817 2.41848 11.75 2.75 11.75Z" fill="url(#paint0_linear_1054_3053)"/>
<path d="M3.26778 12.9996L13.6353 23.3646C13.87 23.5993 14.0019 23.9177 14.0019 24.2496C14.0019 24.5816 13.87 24.8999 13.6353 25.1346C13.4006 25.3693 13.0822 25.5012 12.7503 25.5012C12.4183 25.5012 12.1 25.3693 11.8653 25.1346L0.615281 13.8846C0.498873 13.7685 0.406516 13.6306 0.3435 13.4787C0.280484 13.3268 0.248047 13.164 0.248047 12.9996C0.248047 12.8352 0.280484 12.6724 0.3435 12.5205C0.406516 12.3687 0.498873 12.2307 0.615281 12.1146L11.8653 0.864626C12.1 0.629909 12.4183 0.498047 12.7503 0.498047C13.0822 0.498047 13.4006 0.629909 13.6353 0.864626C13.87 1.09934 14.0019 1.41769 14.0019 1.74963C14.0019 2.08157 13.87 2.39991 13.6353 2.63463L3.26778 12.9996Z" fill="url(#paint1_linear_1054_3053)"/>
<defs>
<linearGradient id="paint0_linear_1054_3053" x1="1.5" y1="14.25" x2="27.8638" y2="7.38605" gradientUnits="userSpaceOnUse">
<stop stop-color="#90C0C4"/>
<stop offset="1" stop-color="#488589"/>
</linearGradient>
<linearGradient id="paint1_linear_1054_3053" x1="0.248047" y1="25.5012" x2="14.325" y2="25.3179" gradientUnits="userSpaceOnUse">
<stop stop-color="#90C0C4"/>
<stop offset="1" stop-color="#488589"/>
</linearGradient>
</defs>
</svg>
