<svg width="29" height="31" viewBox="0 0 29 31" fill="none" xmlns="http://www.w3.org/2000/svg">
<path d="M21.3504 11.3073V9.8211C21.3504 9.68486 21.2307 9.57339 21.0844 9.57339H8.31895C8.17268 9.57339 8.053 9.68486 8.053 9.8211V11.3073C8.053 11.4436 8.17268 11.555 8.31895 11.555H21.0844C21.2307 11.555 21.3504 11.4436 21.3504 11.3073ZM8.31895 14.0321C8.17268 14.0321 8.053 14.1436 8.053 14.2798V15.7661C8.053 15.9023 8.17268 16.0138 8.31895 16.0138H14.4357C14.582 16.0138 14.7017 15.9023 14.7017 15.7661V14.2798C14.7017 14.1436 14.582 14.0321 14.4357 14.0321H8.31895ZM13.0283 28.2577H4.89365V5.80611H24.2758L24.2134 16.8807C24.2134 17.017 24.3157 17.1284 24.462 17.1284H26.1374C26.2837 17.1284 26.4034 17.017 26.4034 16.8807V4.99083C26.4034 4.44278 25.928 4 25.3396 4H4.06379C3.47538 4 3 4.44278 3 4.99083V29.2661C3 29.8141 3.47538 30.2569 4.06379 30.2569H13.106C13.2523 30.2569 13.372 30.1454 13.372 30.0092V28.5976C13.372 28.4613 13.1746 28.2577 13.0283 28.2577ZM27.9226 29.6221L24.821 26.7333C25.5623 25.8198 26.0045 24.6804 26.0045 23.445C26.0045 20.4353 23.3849 17.9954 20.1536 17.9954C16.9224 17.9954 14.3028 20.4353 14.3028 23.445C14.3028 26.4546 16.9224 28.8945 20.1536 28.8945C21.3437 28.8945 22.4474 28.5632 23.3716 27.9966L26.5197 30.9288C26.5729 30.9783 26.6394 31 26.7059 31C26.7724 31 26.8422 30.9752 26.8921 30.9288L27.9226 29.9689C27.9471 29.9462 27.9666 29.9192 27.9799 29.8894C27.9932 29.8597 28 29.8278 28 29.7955C28 29.7633 27.9932 29.7314 27.9799 29.7016C27.9666 29.6719 27.9471 29.6449 27.9226 29.6221ZM20.1461 27.3222C18.0883 27.3222 16.0788 25.3616 16.0788 23.445C16.0788 21.5283 18.0959 19.8384 20.1536 19.8384C22.2114 19.8384 24.2134 21.5283 24.2134 23.445C24.2134 25.3616 22.2039 27.3222 20.1461 27.3222Z" fill="#83B5B8"/>
</svg>
