<svg width="20" height="20" viewBox="0 0 20 20" fill="none" xmlns="http://www.w3.org/2000/svg">
<path d="M14 9C14.3956 9 14.7822 8.8827 15.1111 8.66294C15.44 8.44318 15.6964 8.13082 15.8478 7.76537C15.9991 7.39992 16.0387 6.99778 15.9616 6.60982C15.8844 6.22186 15.6939 5.86549 15.4142 5.58579C15.1345 5.30608 14.7781 5.1156 14.3902 5.03843C14.0022 4.96126 13.6001 5.00087 13.2346 5.15224C12.8692 5.30362 12.5568 5.55996 12.3371 5.88886C12.1173 6.21776 12 6.60444 12 7C12 7.53043 12.2107 8.03914 12.5858 8.41421C12.9609 8.78929 13.4696 9 14 9V9ZM14 6.33333C14.1319 6.33333 14.2607 6.37243 14.3704 6.44569C14.48 6.51894 14.5655 6.62306 14.6159 6.74488C14.6664 6.8667 14.6796 7.00074 14.6539 7.13006C14.6281 7.25938 14.5646 7.37817 14.4714 7.4714C14.3782 7.56464 14.2594 7.62813 14.1301 7.65386C14.0007 7.67958 13.8667 7.66638 13.7449 7.61592C13.6231 7.56546 13.5189 7.48001 13.4457 7.37038C13.3724 7.26075 13.3333 7.13185 13.3333 7C13.3333 6.82319 13.4036 6.65362 13.5286 6.5286C13.6536 6.40357 13.8232 6.33333 14 6.33333Z" fill="#83B5B8"/>
<path d="M17.1667 2.5H3.83333C3.47971 2.5 3.14057 2.64048 2.89052 2.89052C2.64048 3.14057 2.5 3.47971 2.5 3.83333V17.1667C2.5 17.5203 2.64048 17.8594 2.89052 18.1095C3.14057 18.3595 3.47971 18.5 3.83333 18.5H17.1667C17.5203 18.5 17.8594 18.3595 18.1095 18.1095C18.3595 17.8594 18.5 17.5203 18.5 17.1667V3.83333C18.5 3.47971 18.3595 3.14057 18.1095 2.89052C17.8594 2.64048 17.5203 2.5 17.1667 2.5V2.5ZM17.1667 17.1667H3.83333V13.1667L7.16667 9.83333L10.8933 13.56C11.1432 13.8083 11.4811 13.9477 11.8333 13.9477C12.1856 13.9477 12.5235 13.8083 12.7733 13.56L13.8333 12.5L17.1667 15.8333V17.1667ZM17.1667 13.9467L14.7733 11.5533C14.5235 11.305 14.1856 11.1656 13.8333 11.1656C13.4811 11.1656 13.1432 11.305 12.8933 11.5533L11.8333 12.6133L8.10667 8.88667C7.85685 8.63833 7.51891 8.49894 7.16667 8.49894C6.81442 8.49894 6.47648 8.63833 6.22667 8.88667L3.83333 11.28V3.83333H17.1667V13.9467Z" fill="#83B5B8"/>
</svg>
