<svg width="31" height="31" viewBox="0 0 31 31" fill="none" xmlns="http://www.w3.org/2000/svg">
<path d="M15.875 15.875C17.4663 15.875 18.9924 15.2429 20.1176 14.1176C21.2429 12.9924 21.875 11.4663 21.875 9.875C21.875 8.2837 21.2429 6.75758 20.1176 5.63236C18.9924 4.50714 17.4663 3.875 15.875 3.875C14.2837 3.875 12.7576 4.50714 11.6324 5.63236C10.5071 6.75758 9.875 8.2837 9.875 9.875C9.875 11.4663 10.5071 12.9924 11.6324 14.1176C12.7576 15.2429 14.2837 15.875 15.875 15.875V15.875ZM19.875 9.875C19.875 10.9359 19.4536 11.9533 18.7034 12.7034C17.9533 13.4536 16.9359 13.875 15.875 13.875C14.8141 13.875 13.7967 13.4536 13.0466 12.7034C12.2964 11.9533 11.875 10.9359 11.875 9.875C11.875 8.81413 12.2964 7.79672 13.0466 7.04657C13.7967 6.29643 14.8141 5.875 15.875 5.875C16.9359 5.875 17.9533 6.29643 18.7034 7.04657C19.4536 7.79672 19.875 8.81413 19.875 9.875V9.875ZM27.875 25.875C27.875 27.875 25.875 27.875 25.875 27.875H5.875C5.875 27.875 3.875 27.875 3.875 25.875C3.875 23.875 5.875 17.875 15.875 17.875C25.875 17.875 27.875 23.875 27.875 25.875ZM25.875 25.867C25.873 25.375 25.567 23.895 24.211 22.539C22.907 21.235 20.453 19.875 15.875 19.875C11.295 19.875 8.843 21.235 7.539 22.539C6.183 23.895 5.879 25.375 5.875 25.867H25.875Z" fill="#476D70"/>
</svg>
