<svg width="31" height="30" viewBox="0 0 31 30" fill="none" xmlns="http://www.w3.org/2000/svg">
<path d="M26.298 25.7405L20.6832 20.3285M23.7948 13.0957C23.7948 15.8105 22.6739 18.4141 20.6787 20.3338C18.6835 22.2535 15.9775 23.3319 13.1559 23.3319C10.3343 23.3319 7.6283 22.2535 5.63313 20.3338C3.63796 18.4141 2.51709 15.8105 2.51709 13.0957C2.51709 10.3808 3.63796 7.77719 5.63313 5.85751C7.6283 3.93784 10.3343 2.85938 13.1559 2.85938C15.9775 2.85938 18.6835 3.93784 20.6787 5.85751C22.6739 7.77719 23.7948 10.3808 23.7948 13.0957Z" stroke="url(#paint0_linear_297_1203)" stroke-width="2.5" stroke-linecap="round"/>
<defs>
<linearGradient id="paint0_linear_297_1203" x1="2.51709" y1="25.7405" x2="26.8462" y2="25.142" gradientUnits="userSpaceOnUse">
<stop stop-color="#83B5B8"/>
<stop offset="1" stop-color="#618580"/>
</linearGradient>
</defs>
</svg>
