<svg width="31" height="30" viewBox="0 0 31 30" fill="none" xmlns="http://www.w3.org/2000/svg">
<path d="M14.9019 2.495C17.2864 2.49197 19.5786 3.38747 21.2926 4.99179C23.0066 6.5961 24.0079 8.78318 24.0843 11.0897L24.0892 11.386V16.2429L25.7797 19.9842C25.8817 20.2096 25.9241 20.4561 25.9029 20.7014C25.8817 20.9466 25.7977 21.1829 25.6585 21.3888C25.5193 21.5947 25.3292 21.7638 25.1055 21.8808C24.8817 21.9978 24.6314 22.059 24.3771 22.0588L18.5768 22.0623C18.5781 22.9882 18.2062 23.878 17.5402 24.5427C16.8742 25.2074 15.9666 25.5945 15.0103 25.6218C14.054 25.6492 13.1244 25.3145 12.4191 24.689C11.7137 24.0635 11.2882 23.1965 11.233 22.2722L11.2269 22.0588H5.43886C5.18505 22.0585 4.9353 21.9972 4.71202 21.8804C4.48874 21.7636 4.29893 21.595 4.15963 21.3897C4.02033 21.1844 3.93591 20.9488 3.91395 20.7041C3.89199 20.4594 3.93317 20.2133 4.0338 19.9878L5.71448 16.2441V11.386C5.71448 6.4604 9.82063 2.495 14.9019 2.495V2.495ZM16.7393 22.06L13.0644 22.0623C13.0643 22.5191 13.2459 22.9584 13.5714 23.2891C13.8969 23.6199 14.3415 23.8167 14.8129 23.8388C15.2844 23.8609 15.7465 23.7066 16.1036 23.4078C16.4606 23.1091 16.6852 22.6889 16.7308 22.2342L16.7393 22.06ZM14.9019 4.27321C10.8349 4.27321 7.55196 7.44315 7.55196 11.386V16.6139L5.90558 20.2818H23.9092L22.2518 16.6151V11.4014L22.2481 11.1347C22.1844 9.29158 21.3821 7.54478 20.011 6.2641C18.6398 4.98343 16.8075 4.26941 14.9019 4.27321V4.27321Z" fill="#6BA2A6"/>
</svg>
