<svg width="31" height="31" viewBox="0 0 31 31" fill="none" xmlns="http://www.w3.org/2000/svg">
<path d="M7.11111 26C6.7963 26 6.53259 25.8933 6.32 25.68C6.10667 25.4674 6 25.2037 6 24.8889V18.2222C6 17.9074 6.10667 17.6433 6.32 17.43C6.53259 17.2174 6.7963 17.1111 7.11111 17.1111C7.42593 17.1111 7.69 17.2174 7.90333 17.43C8.11593 17.6433 8.22222 17.9074 8.22222 18.2222V22.2222L22.2222 8.22222H18.2222C17.9074 8.22222 17.6437 8.11556 17.4311 7.90222C17.2178 7.68963 17.1111 7.42593 17.1111 7.11111C17.1111 6.7963 17.2178 6.53222 17.4311 6.31889C17.6437 6.1063 17.9074 6 18.2222 6H24.8889C25.2037 6 25.4674 6.1063 25.68 6.31889C25.8933 6.53222 26 6.7963 26 7.11111V13.7778C26 14.0926 25.8933 14.3563 25.68 14.5689C25.4674 14.7822 25.2037 14.8889 24.8889 14.8889C24.5741 14.8889 24.3104 14.7822 24.0978 14.5689C23.8844 14.3563 23.7778 14.0926 23.7778 13.7778V9.77778L9.77778 23.7778H13.7778C14.0926 23.7778 14.3567 23.8844 14.57 24.0978C14.7826 24.3104 14.8889 24.5741 14.8889 24.8889C14.8889 25.2037 14.7826 25.4674 14.57 25.68C14.3567 25.8933 14.0926 26 13.7778 26H7.11111Z" fill="#476D70"/>
</svg>
