<svg width="17" height="17" viewBox="0 0 17 17" fill="none" xmlns="http://www.w3.org/2000/svg">
<path d="M13.1045 12.2187C13.1045 12.3596 13.0485 12.4948 12.9489 12.5944C12.8493 12.694 12.7141 12.75 12.5732 12.75C12.4323 12.75 12.2972 12.694 12.1976 12.5944C12.098 12.4948 12.042 12.3596 12.042 12.2187V5.35498L10.4695 6.92748C10.4209 6.97967 10.3622 7.02154 10.297 7.05057C10.2319 7.07961 10.1615 7.09522 10.0902 7.09648C10.0189 7.09774 9.94801 7.08462 9.88186 7.0579C9.81571 7.03118 9.75562 6.99141 9.70517 6.94097C9.65473 6.89052 9.61496 6.83043 9.58824 6.76428C9.56152 6.69813 9.5484 6.62727 9.54966 6.55594C9.55092 6.48461 9.56653 6.41427 9.59556 6.3491C9.6246 6.28393 9.66646 6.22528 9.71866 6.17665L12.1978 3.69748C12.2974 3.59799 12.4325 3.54211 12.5732 3.54211C12.714 3.54211 12.8491 3.59799 12.9487 3.69748L15.4278 6.17665C15.5217 6.27735 15.5728 6.41055 15.5703 6.54818C15.5679 6.68581 15.5121 6.81713 15.4148 6.91446C15.3175 7.0118 15.1862 7.06755 15.0485 7.06998C14.9109 7.07241 14.7777 7.02132 14.677 6.92748L13.1045 5.35498V12.2187ZM1.94824 12.3958C1.80735 12.3958 1.67222 12.3398 1.57259 12.2402C1.47296 12.1406 1.41699 12.0055 1.41699 11.8646C1.41699 11.7237 1.47296 11.5885 1.57259 11.4889C1.67222 11.3893 1.80735 11.3333 1.94824 11.3333H8.67741C8.81831 11.3333 8.95343 11.3893 9.05306 11.4889C9.15269 11.5885 9.20866 11.7237 9.20866 11.8646C9.20866 12.0055 9.15269 12.1406 9.05306 12.2402C8.95343 12.3398 8.81831 12.3958 8.67741 12.3958H1.94824ZM1.94824 8.85415C1.80735 8.85415 1.67222 8.79818 1.57259 8.69855C1.47296 8.59892 1.41699 8.46379 1.41699 8.3229C1.41699 8.182 1.47296 8.04688 1.57259 7.94725C1.67222 7.84762 1.80735 7.79165 1.94824 7.79165H5.84408C5.98497 7.79165 6.1201 7.84762 6.21973 7.94725C6.31935 8.04688 6.37533 8.182 6.37533 8.3229C6.37533 8.46379 6.31935 8.59892 6.21973 8.69855C6.1201 8.79818 5.98497 8.85415 5.84408 8.85415H1.94824ZM1.94824 5.31248C1.80735 5.31248 1.67222 5.25651 1.57259 5.15688C1.47296 5.05725 1.41699 4.92213 1.41699 4.78123C1.41699 4.64033 1.47296 4.50521 1.57259 4.40558C1.67222 4.30595 1.80735 4.24998 1.94824 4.24998H4.42741C4.56831 4.24998 4.70343 4.30595 4.80306 4.40558C4.90269 4.50521 4.95866 4.64033 4.95866 4.78123C4.95866 4.92213 4.90269 5.05725 4.80306 5.15688C4.70343 5.25651 4.56831 5.31248 4.42741 5.31248H1.94824Z" fill="#476D70"/>
</svg>
