<svg width="17" height="17" viewBox="0 0 17 17" fill="none" xmlns="http://www.w3.org/2000/svg">
<path d="M13.1045 11.645V4.78125C13.1045 4.64035 13.0485 4.50523 12.9489 4.4056C12.8493 4.30597 12.7141 4.25 12.5732 4.25C12.4323 4.25 12.2972 4.30597 12.1976 4.4056C12.098 4.50523 12.042 4.64035 12.042 4.78125V11.645L10.4695 10.0725C10.4209 10.0203 10.3622 9.97844 10.297 9.9494C10.2319 9.92037 10.1615 9.90476 10.0902 9.9035C10.0189 9.90224 9.94801 9.91536 9.88186 9.94208C9.81571 9.9688 9.75562 10.0086 9.70517 10.059C9.65473 10.1095 9.61496 10.1696 9.58824 10.2357C9.56152 10.3019 9.5484 10.3727 9.54966 10.444C9.55091 10.5154 9.56653 10.5857 9.59556 10.6509C9.6246 10.716 9.66646 10.7747 9.71866 10.8233L12.1978 13.3025C12.2974 13.402 12.4325 13.4579 12.5732 13.4579C12.714 13.4579 12.849 13.402 12.9487 13.3025L15.4278 10.8233C15.48 10.7747 15.5219 10.716 15.5509 10.6509C15.58 10.5857 15.5956 10.5154 15.5968 10.444C15.5981 10.3727 15.585 10.3019 15.5582 10.2357C15.5315 10.1696 15.4918 10.1095 15.4413 10.059C15.3909 10.0086 15.3308 9.9688 15.2646 9.94208C15.1985 9.91536 15.1276 9.90224 15.0563 9.9035C14.985 9.90476 14.9146 9.92037 14.8494 9.9494C14.7843 9.97844 14.7256 10.0203 14.677 10.0725L13.1045 11.645V11.645ZM1.41699 5.13542C1.41699 4.99452 1.47296 4.85939 1.57259 4.75977C1.67222 4.66014 1.80735 4.60417 1.94824 4.60417H8.67741C8.8183 4.60417 8.95343 4.66014 9.05306 4.75977C9.15269 4.85939 9.20866 4.99452 9.20866 5.13542C9.20866 5.27631 9.15269 5.41144 9.05306 5.51107C8.95343 5.6107 8.8183 5.66667 8.67741 5.66667H1.94824C1.80735 5.66667 1.67222 5.6107 1.57259 5.51107C1.47296 5.41144 1.41699 5.27631 1.41699 5.13542ZM1.41699 8.67708C1.41699 8.53619 1.47296 8.40106 1.57259 8.30143C1.67222 8.2018 1.80735 8.14583 1.94824 8.14583H5.84408C5.98497 8.14583 6.1201 8.2018 6.21973 8.30143C6.31935 8.40106 6.37533 8.53619 6.37533 8.67708C6.37533 8.81798 6.31935 8.9531 6.21973 9.05273C6.1201 9.15236 5.98497 9.20833 5.84408 9.20833H1.94824C1.80735 9.20833 1.67222 9.15236 1.57259 9.05273C1.47296 8.9531 1.41699 8.81798 1.41699 8.67708ZM1.41699 12.2187C1.41699 12.0779 1.47296 11.9427 1.57259 11.8431C1.67222 11.7435 1.80735 11.6875 1.94824 11.6875H4.42741C4.56831 11.6875 4.70343 11.7435 4.80306 11.8431C4.90269 11.9427 4.95866 12.0779 4.95866 12.2187C4.95866 12.3596 4.90269 12.4948 4.80306 12.5944C4.70343 12.694 4.56831 12.75 4.42741 12.75H1.94824C1.80735 12.75 1.67222 12.694 1.57259 12.5944C1.47296 12.4948 1.41699 12.3596 1.41699 12.2187Z" fill="#476D70"/>
</svg>
