<svg width="18" height="18" viewBox="0 0 18 18" fill="none" xmlns="http://www.w3.org/2000/svg">
<path d="M16.2 4.20088H12.2V2.86497C12.1812 2.35286 11.9602 1.86909 11.5853 1.5197C11.2104 1.17031 10.7122 0.983818 10.2 1.0011H7.8C7.2878 0.983818 6.78965 1.17031 6.41474 1.5197C6.03984 1.86909 5.81877 2.35286 5.8 2.86497V4.20088H1.8C1.58783 4.20088 1.38434 4.28516 1.23431 4.43518C1.08429 4.5852 1 4.78867 1 5.00083C1 5.21299 1.08429 5.41645 1.23431 5.56647C1.38434 5.71649 1.58783 5.80077 1.8 5.80077H2.6V14.6002C2.6 15.2366 2.85286 15.847 3.30294 16.2971C3.75303 16.7472 4.36348 17 5 17H13C13.6365 17 14.247 16.7472 14.6971 16.2971C15.1471 15.847 15.4 15.2366 15.4 14.6002V5.80077H16.2C16.4122 5.80077 16.6157 5.71649 16.7657 5.56647C16.9157 5.41645 17 5.21299 17 5.00083C17 4.78867 16.9157 4.5852 16.7657 4.43518C16.6157 4.28516 16.4122 4.20088 16.2 4.20088ZM7.4 2.86497C7.4 2.73698 7.568 2.60099 7.8 2.60099H10.2C10.432 2.60099 10.6 2.73698 10.6 2.86497V4.20088H7.4V2.86497ZM13.8 14.6002C13.8 14.8123 13.7157 15.0158 13.5657 15.1658C13.4157 15.3158 13.2122 15.4001 13 15.4001H5C4.78783 15.4001 4.58434 15.3158 4.43431 15.1658C4.28429 15.0158 4.2 14.8123 4.2 14.6002V5.80077H13.8V14.6002Z" fill="#83B5B8"/>
<path d="M6.75 13C6.94891 13 7.13968 12.9122 7.28033 12.7559C7.42098 12.5996 7.5 12.3877 7.5 12.1667V8.83333C7.5 8.61232 7.42098 8.40036 7.28033 8.24408C7.13968 8.0878 6.94891 8 6.75 8C6.55109 8 6.36032 8.0878 6.21967 8.24408C6.07902 8.40036 6 8.61232 6 8.83333V12.1667C6 12.3877 6.07902 12.5996 6.21967 12.7559C6.36032 12.9122 6.55109 13 6.75 13ZM11.25 13C11.4489 13 11.6397 12.9122 11.7803 12.7559C11.921 12.5996 12 12.3877 12 12.1667V8.83333C12 8.61232 11.921 8.40036 11.7803 8.24408C11.6397 8.0878 11.4489 8 11.25 8C11.0511 8 10.8603 8.0878 10.7197 8.24408C10.579 8.40036 10.5 8.61232 10.5 8.83333V12.1667C10.5 12.3877 10.579 12.5996 10.7197 12.7559C10.8603 12.9122 11.0511 13 11.25 13Z" fill="#83B5B8"/>
</svg>
