<svg width="513" height="513" viewBox="0 0 513 513" fill="none" xmlns="http://www.w3.org/2000/svg">
<path fill-rule="evenodd" clip-rule="evenodd" d="M183.521 55.2712C191.538 47.254 202.412 42.75 213.75 42.75H299.25C310.588 42.75 321.462 47.254 329.479 55.2712C337.496 63.2884 342 74.162 342 85.5V128.25H405.904C406.037 128.249 406.169 128.249 406.301 128.25H427.5C439.305 128.25 448.875 137.82 448.875 149.625C448.875 161.43 439.305 171 427.5 171H426.028L408.914 410.678C408.914 410.679 408.914 410.676 408.914 410.678C407.761 426.854 400.522 441.998 388.654 453.051C376.785 464.105 361.168 470.25 344.949 470.25H168.051C151.832 470.25 136.215 464.105 124.346 453.051C112.478 441.998 105.239 426.859 104.086 410.683C104.086 410.681 104.087 410.684 104.086 410.683L86.9719 171H85.5C73.6949 171 64.125 161.43 64.125 149.625C64.125 137.82 73.6949 128.25 85.5 128.25H106.699C106.831 128.249 106.963 128.249 107.096 128.25H171V85.5C171 74.162 175.504 63.2884 183.521 55.2712ZM129.831 171L146.728 407.638C147.112 413.031 149.525 418.082 153.481 421.767C157.438 425.452 162.643 427.5 168.05 427.5H344.95C350.357 427.5 355.562 425.452 359.519 421.767C363.475 418.082 365.888 413.035 366.272 407.643L383.169 171H129.831ZM299.25 128.25H213.75V85.5H299.25V128.25ZM213.75 213.75C225.555 213.75 235.125 223.32 235.125 235.125V363.375C235.125 375.18 225.555 384.75 213.75 384.75C201.945 384.75 192.375 375.18 192.375 363.375V235.125C192.375 223.32 201.945 213.75 213.75 213.75ZM299.25 213.75C311.055 213.75 320.625 223.32 320.625 235.125V363.375C320.625 375.18 311.055 384.75 299.25 384.75C287.445 384.75 277.875 375.18 277.875 363.375V235.125C277.875 223.32 287.445 213.75 299.25 213.75Z" fill="#83B5B8"/>
</svg>
