<svg width="19" height="19" viewBox="0 0 19 19" fill="none" xmlns="http://www.w3.org/2000/svg">
<path d="M2.37533 0.791504C1.49658 0.791504 0.791992 1.49609 0.791992 2.37484V11.0832C0.791992 11.9619 1.49658 12.6665 2.37533 12.6665H11.0837C11.9624 12.6665 12.667 11.9619 12.667 11.0832V2.37484C12.667 1.49609 11.9624 0.791504 11.0837 0.791504H2.37533ZM2.37533 2.37484H11.0837V11.0832H2.37533V2.37484ZM14.2503 5.5415V7.12484H15.8337V15.8332H7.12533V14.2498H5.54199V15.8332C5.54199 16.7119 6.24658 17.4165 7.12533 17.4165H15.8337C16.7124 17.4165 17.417 16.7119 17.417 15.8332V7.12484C17.417 6.24609 16.7124 5.5415 15.8337 5.5415H14.2503Z" fill="#83B5B8"/>
</svg>
