<svg width="19" height="19" viewBox="0 0 19 19" fill="none" xmlns="http://www.w3.org/2000/svg">
<path d="M5.34375 3.5625C4.87133 3.5625 4.41827 3.75017 4.08422 4.08422C3.75017 4.41827 3.5625 4.87133 3.5625 5.34375V13.6562C3.5625 14.1287 3.75017 14.5817 4.08422 14.9158C4.41827 15.2498 4.87133 15.4375 5.34375 15.4375H13.6562C14.1287 15.4375 14.5817 15.2498 14.9158 14.9158C15.2498 14.5817 15.4375 14.1287 15.4375 13.6562V11.0081C15.4375 10.8507 15.5001 10.6996 15.6114 10.5883C15.7228 10.4769 15.8738 10.4144 16.0312 10.4144C16.1887 10.4144 16.3397 10.4769 16.4511 10.5883C16.5624 10.6996 16.625 10.8507 16.625 11.0081V13.6562C16.625 14.4436 16.3122 15.1987 15.7555 15.7555C15.1987 16.3122 14.4436 16.625 13.6562 16.625H5.34375C4.55639 16.625 3.80128 16.3122 3.24453 15.7555C2.68778 15.1987 2.375 14.4436 2.375 13.6562V5.34375C2.375 4.55639 2.68778 3.80128 3.24453 3.24453C3.80128 2.68778 4.55639 2.375 5.34375 2.375H7.99188C8.14935 2.375 8.30037 2.43756 8.41172 2.54891C8.52307 2.66026 8.58563 2.81128 8.58563 2.96875C8.58563 3.12622 8.52307 3.27724 8.41172 3.38859C8.30037 3.49994 8.14935 3.5625 7.99188 3.5625H5.34375ZM10.4144 2.96875C10.4144 2.81128 10.4769 2.66026 10.5883 2.54891C10.6996 2.43756 10.8507 2.375 11.0081 2.375H16.0312C16.1887 2.375 16.3397 2.43756 16.4511 2.54891C16.5624 2.66026 16.625 2.81128 16.625 2.96875V7.99188C16.625 8.14935 16.5624 8.30037 16.4511 8.41172C16.3397 8.52307 16.1887 8.58563 16.0312 8.58563C15.8738 8.58563 15.7228 8.52307 15.6114 8.41172C15.5001 8.30037 15.4375 8.14935 15.4375 7.99188V4.40325L11.4273 8.41225C11.3725 8.46896 11.307 8.51419 11.2346 8.54531C11.1621 8.57643 11.0842 8.59281 11.0054 8.59349C10.9266 8.59418 10.8484 8.57915 10.7754 8.5493C10.7024 8.51945 10.6361 8.47536 10.5804 8.41961C10.5246 8.36386 10.4806 8.29757 10.4507 8.2246C10.4208 8.15163 10.4058 8.07344 10.4065 7.99461C10.4072 7.91577 10.4236 7.83786 10.4547 7.76542C10.4858 7.69298 10.531 7.62746 10.5878 7.57269L14.5979 3.5625H11.0069C10.8495 3.5625 10.6984 3.49994 10.5871 3.38859C10.4757 3.27724 10.4132 3.12622 10.4132 2.96875H10.4144Z" fill="#476D70"/>
</svg>
