<svg width="22" height="22" viewBox="0 0 22 22" fill="none" xmlns="http://www.w3.org/2000/svg">
<path d="M11 15.8148C11.4774 15.8148 11.9352 15.6587 12.2728 15.3809C12.6104 15.1031 12.8 14.7262 12.8 14.3333C12.8 13.9404 12.6104 13.5636 12.2728 13.2858C11.9352 13.0079 11.4774 12.8519 11 12.8519C10.5226 12.8519 10.0648 13.0079 9.72721 13.2858C9.38964 13.5636 9.2 13.9404 9.2 14.3333C9.2 14.7262 9.38964 15.1031 9.72721 15.3809C10.0648 15.6587 10.5226 15.8148 11 15.8148ZM11 2.48148C10.2839 2.48148 9.59716 2.71561 9.09081 3.13236C8.58446 3.5491 8.3 4.11433 8.3 4.7037V7.66667H17.3C18.0161 7.66667 18.7028 7.90079 19.2092 8.31754C19.7155 8.73429 20 9.29952 20 9.88889V18.7778C20 19.3671 19.7155 19.9324 19.2092 20.3491C18.7028 20.7659 18.0161 21 17.3 21H4.7C3.98392 21 3.29716 20.7659 2.79081 20.3491C2.28446 19.9324 2 19.3671 2 18.7778V9.88889C2 9.29952 2.28446 8.73429 2.79081 8.31754C3.29716 7.90079 3.98392 7.66667 4.7 7.66667H6.5V4.7037C6.5 3.72142 6.97411 2.77937 7.81802 2.08479C8.66193 1.39021 9.80653 1 11 1C12.1935 1 13.3381 1.39021 14.182 2.08479C15.0259 2.77937 15.5 3.72142 15.5 4.7037C15.5 4.90016 15.4052 5.08857 15.2364 5.22749C15.0676 5.3664 14.8387 5.44444 14.6 5.44444C14.3613 5.44444 14.1324 5.3664 13.9636 5.22749C13.7948 5.08857 13.7 4.90016 13.7 4.7037C13.7 4.11433 13.4155 3.5491 12.9092 3.13236C12.4028 2.71561 11.7161 2.48148 11 2.48148ZM4.7 9.14815C4.46131 9.14815 4.23239 9.22619 4.0636 9.36511C3.89482 9.50402 3.8 9.69243 3.8 9.88889V18.7778C3.8 18.9742 3.89482 19.1626 4.0636 19.3016C4.23239 19.4405 4.46131 19.5185 4.7 19.5185H17.3C17.5387 19.5185 17.7676 19.4405 17.9364 19.3016C18.1052 19.1626 18.2 18.9742 18.2 18.7778V9.88889C18.2 9.69243 18.1052 9.50402 17.9364 9.36511C17.7676 9.22619 17.5387 9.14815 17.3 9.14815H4.7Z" fill="#83B5B8"/>
</svg>
