<svg width="22" height="22" viewBox="0 0 22 22" fill="none" xmlns="http://www.w3.org/2000/svg">
<path d="M3.41667 21C3.41667 21 2 21 2 19.5C2 18 3.41667 13.5 10.5 13.5C17.5833 13.5 19 18 19 19.5C19 21 17.5833 21 17.5833 21H3.41667ZM10.5 12C11.6271 12 12.7082 11.5259 13.5052 10.682C14.3023 9.83807 14.75 8.69347 14.75 7.5C14.75 6.30653 14.3023 5.16193 13.5052 4.31802C12.7082 3.47411 11.6271 3 10.5 3C9.37282 3 8.29182 3.47411 7.49479 4.31802C6.69776 5.16193 6.25 6.30653 6.25 7.5C6.25 8.69347 6.69776 9.83807 7.49479 10.682C8.29182 11.5259 9.37282 12 10.5 12Z" fill="url(#paint0_linear_834_2313)"/>
<defs>
<linearGradient id="paint0_linear_834_2313" x1="2" y1="21" x2="19.3937" y2="20.6112" gradientUnits="userSpaceOnUse">
<stop stop-color="#83B5B8"/>
<stop offset="1" stop-color="#618580"/>
</linearGradient>
</defs>
</svg>
