<svg width="22" height="22" viewBox="0 0 22 22" fill="none" xmlns="http://www.w3.org/2000/svg">
<path d="M16.8802 2C17.6601 2 18.4081 2.31279 18.9597 2.86956C19.5112 3.42633 19.821 4.18147 19.821 4.96886V9.2832C19.441 9.1619 19.0428 9.10924 18.6447 9.12764V6.70386L10.7093 11.4184C10.6343 11.4629 10.5504 11.49 10.4637 11.4978C10.3771 11.5056 10.2898 11.4939 10.2082 11.4635L10.1117 11.4184L2.17631 6.70624V14.4692C2.17631 14.9416 2.36221 15.3947 2.69311 15.7288C3.02401 16.0628 3.47281 16.2505 3.94078 16.2505H10.3917C10.1246 16.6068 9.92115 17.0094 9.79175 17.4381H3.94078C3.16084 17.4381 2.41284 17.1253 1.86133 16.5685C1.30983 16.0117 1 15.2566 1 14.4692V4.96886C1 4.18147 1.30983 3.42633 1.86133 2.86956C2.41284 2.31279 3.16084 2 3.94078 2H16.8802ZM16.8802 3.18754H3.94078C3.47281 3.18754 3.02401 3.37522 2.69311 3.70928C2.36221 4.04334 2.17631 4.49642 2.17631 4.96886V5.3275L10.4105 10.2178L18.6447 5.32631V4.96886C18.6447 4.49642 18.4588 4.04334 18.1279 3.70928C17.797 3.37522 17.3482 3.18754 16.8802 3.18754ZM11.5633 16.697L17.2449 10.9612C17.4492 10.755 17.6918 10.5915 17.9588 10.48C18.2258 10.3685 18.5119 10.3112 18.8008 10.3113C19.0897 10.3114 19.3758 10.3689 19.6426 10.4807C19.9095 10.5924 20.152 10.7561 20.3562 10.9624C20.5604 11.1687 20.7224 11.4136 20.8328 11.6831C20.9433 11.9526 21.0001 12.2415 21 12.5332C20.9999 12.8248 20.9429 13.1136 20.8322 13.3831C20.7215 13.6525 20.5594 13.8973 20.355 14.1034L14.6734 19.8381C14.3425 20.1724 13.9278 20.4096 13.4736 20.5245L11.7115 20.9686C11.5363 21.0127 11.3528 21.0103 11.1787 20.9616C11.0047 20.9129 10.8461 20.8196 10.7184 20.6908C10.5907 20.5619 10.4981 20.4019 10.4497 20.2263C10.4013 20.0507 10.3988 19.8654 10.4423 19.6885L10.8834 17.9095C10.9962 17.4507 11.2313 17.0317 11.5633 16.6982V16.697Z" fill="#83B5B8"/>
</svg>
