<svg width="16" height="16" viewBox="0 0 16 16" fill="none" xmlns="http://www.w3.org/2000/svg">
<path d="M12.333 11.5C12.333 11.6326 12.2803 11.7598 12.1866 11.8536C12.0928 11.9473 11.9656 12 11.833 12C11.7004 12 11.5732 11.9473 11.4795 11.8536C11.3857 11.7598 11.333 11.6326 11.333 11.5V5.04003L9.85301 6.52003C9.80723 6.56915 9.75203 6.60855 9.6907 6.63588C9.62937 6.66321 9.56316 6.6779 9.49602 6.67909C9.42889 6.68027 9.3622 6.66792 9.29994 6.64278C9.23768 6.61763 9.18113 6.5802 9.13365 6.53272C9.08617 6.48524 9.04874 6.42869 9.02359 6.36643C8.99845 6.30417 8.9861 6.23748 8.98728 6.17035C8.98846 6.10321 9.00316 6.037 9.03049 5.97567C9.05782 5.91434 9.09722 5.85914 9.14634 5.81336L11.4797 3.48003C11.5734 3.38639 11.7005 3.3338 11.833 3.3338C11.9655 3.3338 12.0926 3.38639 12.1863 3.48003L14.5197 5.81336C14.608 5.90814 14.6561 6.03351 14.6538 6.16304C14.6515 6.29258 14.599 6.41617 14.5074 6.50778C14.4158 6.59938 14.2922 6.65186 14.1627 6.65414C14.0332 6.65643 13.9078 6.60835 13.813 6.52003L12.333 5.04003V11.5ZM1.83301 11.6667C1.7004 11.6667 1.57322 11.614 1.47945 11.5202C1.38569 11.4265 1.33301 11.2993 1.33301 11.1667C1.33301 11.0341 1.38569 10.9069 1.47945 10.8131C1.57322 10.7194 1.7004 10.6667 1.83301 10.6667H8.16634C8.29895 10.6667 8.42613 10.7194 8.51989 10.8131C8.61366 10.9069 8.66634 11.0341 8.66634 11.1667C8.66634 11.2993 8.61366 11.4265 8.51989 11.5202C8.42613 11.614 8.29895 11.6667 8.16634 11.6667H1.83301ZM1.83301 8.33336C1.7004 8.33336 1.57322 8.28068 1.47945 8.18691C1.38569 8.09315 1.33301 7.96597 1.33301 7.83336C1.33301 7.70075 1.38569 7.57358 1.47945 7.47981C1.57322 7.38604 1.7004 7.33336 1.83301 7.33336H5.49967C5.63228 7.33336 5.75946 7.38604 5.85323 7.47981C5.947 7.57358 5.99967 7.70075 5.99967 7.83336C5.99967 7.96597 5.947 8.09315 5.85323 8.18691C5.75946 8.28068 5.63228 8.33336 5.49967 8.33336H1.83301ZM1.83301 5.00003C1.7004 5.00003 1.57322 4.94735 1.47945 4.85358C1.38569 4.75981 1.33301 4.63264 1.33301 4.50003C1.33301 4.36742 1.38569 4.24024 1.47945 4.14647C1.57322 4.05271 1.7004 4.00003 1.83301 4.00003H4.16634C4.29895 4.00003 4.42613 4.05271 4.51989 4.14647C4.61366 4.24024 4.66634 4.36742 4.66634 4.50003C4.66634 4.63264 4.61366 4.75981 4.51989 4.85358C4.42613 4.94735 4.29895 5.00003 4.16634 5.00003H1.83301Z" fill="#476D70"/>
</svg>
