<svg width="16" height="16" viewBox="0 0 16 16" fill="none" xmlns="http://www.w3.org/2000/svg">
<path d="M12.333 10.96V4.5C12.333 4.36739 12.2803 4.24021 12.1866 4.14645C12.0928 4.05268 11.9656 4 11.833 4C11.7004 4 11.5732 4.05268 11.4795 4.14645C11.3857 4.24021 11.333 4.36739 11.333 4.5V10.96L9.85301 9.48C9.80723 9.43088 9.75203 9.39147 9.6907 9.36415C9.62937 9.33682 9.56316 9.32212 9.49602 9.32094C9.42889 9.31975 9.3622 9.3321 9.29994 9.35725C9.23768 9.3824 9.18113 9.41983 9.13365 9.46731C9.08617 9.51479 9.04874 9.57134 9.02359 9.6336C8.99844 9.69586 8.98609 9.76255 8.98728 9.82968C8.98846 9.89682 9.00316 9.96303 9.03049 10.0244C9.05781 10.0857 9.09722 10.1409 9.14634 10.1867L11.4797 12.52C11.5734 12.6136 11.7005 12.6662 11.833 12.6662C11.9655 12.6662 12.0926 12.6136 12.1863 12.52L14.5197 10.1867C14.5688 10.1409 14.6082 10.0857 14.6355 10.0244C14.6629 9.96303 14.6775 9.89682 14.6787 9.82968C14.6799 9.76255 14.6676 9.69586 14.6424 9.6336C14.6173 9.57134 14.5798 9.51479 14.5324 9.46731C14.4849 9.41983 14.4283 9.3824 14.3661 9.35725C14.3038 9.3321 14.2371 9.31975 14.17 9.32094C14.1029 9.32212 14.0366 9.33682 13.9753 9.36415C13.914 9.39147 13.8588 9.43088 13.813 9.48L12.333 10.96V10.96ZM1.33301 4.83333C1.33301 4.70073 1.38569 4.57355 1.47945 4.47978C1.57322 4.38601 1.7004 4.33333 1.83301 4.33333H8.16634C8.29895 4.33333 8.42613 4.38601 8.51989 4.47978C8.61366 4.57355 8.66634 4.70073 8.66634 4.83333C8.66634 4.96594 8.61366 5.09312 8.51989 5.18689C8.42613 5.28065 8.29895 5.33333 8.16634 5.33333H1.83301C1.7004 5.33333 1.57322 5.28065 1.47945 5.18689C1.38569 5.09312 1.33301 4.96594 1.33301 4.83333ZM1.33301 8.16667C1.33301 8.03406 1.38569 7.90688 1.47945 7.81311C1.57322 7.71935 1.7004 7.66667 1.83301 7.66667H5.49967C5.63228 7.66667 5.75946 7.71935 5.85323 7.81311C5.947 7.90688 5.99967 8.03406 5.99967 8.16667C5.99967 8.29927 5.947 8.42645 5.85323 8.52022C5.75946 8.61399 5.63228 8.66667 5.49967 8.66667H1.83301C1.7004 8.66667 1.57322 8.61399 1.47945 8.52022C1.38569 8.42645 1.33301 8.29927 1.33301 8.16667ZM1.33301 11.5C1.33301 11.3674 1.38569 11.2402 1.47945 11.1464C1.57322 11.0527 1.7004 11 1.83301 11H4.16634C4.29895 11 4.42613 11.0527 4.51989 11.1464C4.61366 11.2402 4.66634 11.3674 4.66634 11.5C4.66634 11.6326 4.61366 11.7598 4.51989 11.8536C4.42613 11.9473 4.29895 12 4.16634 12H1.83301C1.7004 12 1.57322 11.9473 1.47945 11.8536C1.38569 11.7598 1.33301 11.6326 1.33301 11.5Z" fill="#476D70"/>
</svg>
