<svg width="31" height="31" viewBox="0 0 31 31" fill="none" xmlns="http://www.w3.org/2000/svg">
<path d="M14.9235 3C16.9881 2.99973 19.0105 3.60537 20.7564 4.74673C22.5023 5.88809 23.9002 7.51844 24.7881 9.44888C25.676 11.3793 26.0176 13.5308 25.7732 15.6541C25.5289 17.7773 24.7086 19.7854 23.4074 21.4456L27.244 24.7198C27.4467 24.9284 27.5656 25.2088 27.5768 25.5046C27.5879 25.8003 27.4905 26.0894 27.304 26.3138C27.1176 26.5381 26.8561 26.681 26.572 26.7136C26.288 26.7462 26.0026 26.6662 25.7732 26.4896L25.6466 26.3757L21.8086 23.1014C20.4507 24.2425 18.8482 25.0293 17.1357 25.3957C15.4232 25.7621 13.6508 25.6975 11.9675 25.2072C10.2841 24.7169 8.73902 23.8153 7.46197 22.5782C6.18493 21.341 5.21327 19.8045 4.62865 18.0977C4.04404 16.3909 3.86355 14.5637 4.10236 12.7696C4.34117 10.9756 4.99229 9.26711 6.00101 7.78779C7.00973 6.30847 8.34657 5.10153 9.89919 4.26839C11.4518 3.43526 13.1748 3.00028 14.9235 3ZM14.9235 5.34101C13.7856 5.34101 12.6589 5.57312 11.6076 6.0241C10.5564 6.47508 9.60116 7.13609 8.79656 7.96939C7.99196 8.80269 7.35372 9.79196 6.91827 10.8807C6.48283 11.9695 6.2587 13.1364 6.2587 14.3149C6.2587 15.4933 6.48283 16.6603 6.91827 17.749C7.35372 18.8378 7.99196 19.827 8.79656 20.6603C9.60116 21.4936 10.5564 22.1546 11.6076 22.6056C12.6589 23.0566 13.7856 23.2887 14.9235 23.2887C17.2215 23.2887 19.4255 22.3433 21.0504 20.6603C22.6754 18.9774 23.5883 16.6949 23.5883 14.3149C23.5883 11.9348 22.6754 9.65231 21.0504 7.96939C19.4255 6.28646 17.2215 5.34101 14.9235 5.34101Z" fill="#6BA2A6"/>
</svg>
