<svg width="24" height="24" viewBox="0 0 24 24" fill="none" xmlns="http://www.w3.org/2000/svg">
<path d="M10.4098 11.0459L7.50312 8.13919L3.83398 11.8081L6.74066 14.7149L6.73878 14.7167L9.87744 17.8553L10.4097 18.3839L10.4115 18.3857L13.5501 15.2471L14.0786 14.7149L23.5603 5.23341L19.8913 1.56445L10.4098 11.0459ZM12.4878 14.1846L11.9593 14.7167L10.4098 16.2662L10.4079 16.2644L8.86025 14.7167L8.86212 14.7149L5.95545 11.8081L7.50308 10.2605L10.4098 13.1672L19.8913 3.68573L21.439 5.23341L12.4878 14.1846Z" fill="white"/>
<path d="M21 21.75H2.25V3H16.3228L17.8228 1.5H0.75V23.25H22.5V8.39508L21 9.89508V21.75Z" fill="white"/>
</svg>
