<svg width="8" height="15" viewBox="0 0 8 15" fill="none" xmlns="http://www.w3.org/2000/svg">
<path d="M1.13526 14.9981C0.87047 14.9986 0.613858 14.9116 0.40997 14.7522C0.295217 14.6624 0.200361 14.5522 0.130833 14.4278C0.0613047 14.3035 0.0184714 14.1674 0.00478626 14.0273C-0.0088989 13.8873 0.00683311 13.7461 0.0510809 13.6118C0.0953286 13.4776 0.167222 13.3528 0.262645 13.2448L5.33967 7.51466L0.443968 1.77382C0.349833 1.66447 0.279534 1.53865 0.237114 1.40358C0.194694 1.26852 0.180989 1.12688 0.196785 0.986799C0.212582 0.846722 0.257569 0.710971 0.329162 0.587349C0.400755 0.463727 0.497541 0.354671 0.613958 0.266449C0.731212 0.169126 0.868525 0.0957163 1.01728 0.0508276C1.16604 0.0059389 1.32302 -0.00945949 1.47838 0.00559807C1.63375 0.0206556 1.78413 0.0658444 1.9201 0.138329C2.05608 0.210813 2.1747 0.309027 2.26853 0.426808L7.7422 6.84116C7.90888 7.03244 8 7.27239 8 7.52001C8 7.76763 7.90888 8.00757 7.7422 8.19886L2.07587 14.6132C1.96218 14.7426 1.81777 14.8448 1.65434 14.9117C1.49091 14.9786 1.31308 15.0082 1.13526 14.9981Z" fill="#476D70"/>
</svg>
