<svg width="16" height="9" viewBox="0 0 16 9" fill="none" xmlns="http://www.w3.org/2000/svg">
<path d="M0.501934 1.63526C0.501446 1.37047 0.58844 1.11386 0.747816 0.90997C0.837563 0.795217 0.947785 0.700361 1.07217 0.630833C1.19655 0.561305 1.33265 0.518471 1.47267 0.504786C1.61269 0.491101 1.75388 0.506833 1.88816 0.551081C2.02244 0.595329 2.14716 0.667222 2.25519 0.762645L7.98534 5.83967L13.7262 0.943968C13.8355 0.849833 13.9614 0.779534 14.0964 0.737114C14.2315 0.694694 14.3731 0.680989 14.5132 0.696785C14.6533 0.712582 14.789 0.757569 14.9127 0.829162C15.0363 0.900755 15.1453 0.997541 15.2336 1.11396C15.3309 1.23121 15.4043 1.36853 15.4492 1.51728C15.4941 1.66604 15.5095 1.82302 15.4944 1.97838C15.4793 2.13375 15.4342 2.28413 15.3617 2.4201C15.2892 2.55608 15.191 2.6747 15.0732 2.76853L8.65884 8.2422C8.46756 8.40888 8.22761 8.5 7.97999 8.5C7.73237 8.5 7.49243 8.40888 7.30114 8.2422L0.886795 2.57587C0.757421 2.46218 0.65515 2.31777 0.588282 2.15434C0.521414 1.99091 0.49183 1.81308 0.501934 1.63526Z" fill="#476D70"/>
</svg>
